<svg width="30" height="26" viewBox="0 0 30 26" fill="none" xmlns="http://www.w3.org/2000/svg">
<path d="M29 21.5604C29 22.242 28.7318 22.8957 28.2545 23.3777C27.7771 23.8597 27.1296 24.1304 26.4545 24.1304H3.54545C2.87036 24.1304 2.22291 23.8597 1.74555 23.3777C1.26818 22.8957 1 22.242 1 21.5604V7.42512C1 6.7435 1.26818 6.0898 1.74555 5.60782C2.22291 5.12584 2.87036 4.85507 3.54545 4.85507H8.63636L11.1818 1H18.8182L21.3636 4.85507H26.4545C27.1296 4.85507 27.7771 5.12584 28.2545 5.60782C28.7318 6.0898 29 6.7435 29 7.42512V21.5604Z" stroke="black" stroke-width="2" stroke-linecap="round" stroke-linejoin="round"/>
<path d="M15 19.2607C18.0255 19.2607 20.4783 16.808 20.4783 13.7825C20.4783 10.7569 18.0255 8.3042 15 8.3042C11.9744 8.3042 9.52173 10.7569 9.52173 13.7825C9.52173 16.808 11.9744 19.2607 15 19.2607Z" stroke="black" stroke-width="2" stroke-linecap="round" stroke-linejoin="round"/>
</svg>
