<svg width="26" height="26" viewBox="0 0 26 26" fill="none" xmlns="http://www.w3.org/2000/svg">
<path d="M22.3333 1H3.66667C2.19391 1 1 2.19391 1 3.66667V22.3333C1 23.8061 2.19391 25 3.66667 25H22.3333C23.8061 25 25 23.8061 25 22.3333V3.66667C25 2.19391 23.8061 1 22.3333 1Z" stroke="black" stroke-width="2" stroke-linecap="round" stroke-linejoin="round"/>
<path d="M8.38461 10.2304C9.40421 10.2304 10.2308 9.40384 10.2308 8.38424C10.2308 7.36464 9.40421 6.53809 8.38461 6.53809C7.365 6.53809 6.53845 7.36464 6.53845 8.38424C6.53845 9.40384 7.365 10.2304 8.38461 10.2304Z" stroke="black" stroke-width="2" stroke-linecap="round" stroke-linejoin="round"/>
<path d="M25 16.9442L18.3654 10.231L3.76923 25.0002" stroke="black" stroke-width="2" stroke-linecap="round" stroke-linejoin="round"/>
</svg>
