<?xml version="1.0" standalone="no"?>
<svg xmlns:xlink="http://www.w3.org/1999/xlink" version="1.1" xmlns="http://www.w3.org/2000/svg" id="QRCodeGenerate" class="img-fluid mw-75" data-copyright="my-qrcode.net" data-modulecount="37" data-defaultsize="390" data-defaultclass="img-fluid mw-75" data-text="https://play.google.com/store/apps/details?id=com.qrw" data-color="rgb(0, 0, 0)" data-backcolor="none" data-typeicon="none" data-framesize="none" data-framewidth="0" data-titlelocation="none" data-titlefont="sans-serif" data-titletext="" data-typenumber="0" data-errorcorrectionlevel="Q" data-mode="Byte" data-mb="UTF-8" width="390px" height="390px" x="0px" y="0px" viewBox="0 0 390 390" preserveAspectRatio="xMinYMin meet"><rect width="100%" height="100%" fill="none" x="0" y="0"/><path d="M10,10l10,0 0,10 -10,0 0,-10z M20,10l10,0 0,10 -10,0 0,-10z M30,10l10,0 0,10 -10,0 0,-10z M40,10l10,0 0,10 -10,0 0,-10z M50,10l10,0 0,10 -10,0 0,-10z M60,10l10,0 0,10 -10,0 0,-10z M70,10l10,0 0,10 -10,0 0,-10z M110,10l10,0 0,10 -10,0 0,-10z M120,10l10,0 0,10 -10,0 0,-10z M130,10l10,0 0,10 -10,0 0,-10z M150,10l10,0 0,10 -10,0 0,-10z M170,10l10,0 0,10 -10,0 0,-10z M200,10l10,0 0,10 -10,0 0,-10z M210,10l10,0 0,10 -10,0 0,-10z M220,10l10,0 0,10 -10,0 0,-10z M230,10l10,0 0,10 -10,0 0,-10z M250,10l10,0 0,10 -10,0 0,-10z M260,10l10,0 0,10 -10,0 0,-10z M270,10l10,0 0,10 -10,0 0,-10z M280,10l10,0 0,10 -10,0 0,-10z M290,10l10,0 0,10 -10,0 0,-10z M310,10l10,0 0,10 -10,0 0,-10z M320,10l10,0 0,10 -10,0 0,-10z M330,10l10,0 0,10 -10,0 0,-10z M340,10l10,0 0,10 -10,0 0,-10z M350,10l10,0 0,10 -10,0 0,-10z M360,10l10,0 0,10 -10,0 0,-10z M370,10l10,0 0,10 -10,0 0,-10z M10,20l10,0 0,10 -10,0 0,-10z M70,20l10,0 0,10 -10,0 0,-10z M110,20l10,0 0,10 -10,0 0,-10z M120,20l10,0 0,10 -10,0 0,-10z M210,20l10,0 0,10 -10,0 0,-10z M260,20l10,0 0,10 -10,0 0,-10z M290,20l10,0 0,10 -10,0 0,-10z M310,20l10,0 0,10 -10,0 0,-10z M370,20l10,0 0,10 -10,0 0,-10z M10,30l10,0 0,10 -10,0 0,-10z M30,30l10,0 0,10 -10,0 0,-10z M40,30l10,0 0,10 -10,0 0,-10z M50,30l10,0 0,10 -10,0 0,-10z M70,30l10,0 0,10 -10,0 0,-10z M90,30l10,0 0,10 -10,0 0,-10z M100,30l10,0 0,10 -10,0 0,-10z M110,30l10,0 0,10 -10,0 0,-10z M140,30l10,0 0,10 -10,0 0,-10z M160,30l10,0 0,10 -10,0 0,-10z M170,30l10,0 0,10 -10,0 0,-10z M180,30l10,0 0,10 -10,0 0,-10z M190,30l10,0 0,10 -10,0 0,-10z M210,30l10,0 0,10 -10,0 0,-10z M220,30l10,0 0,10 -10,0 0,-10z M240,30l10,0 0,10 -10,0 0,-10z M270,30l10,0 0,10 -10,0 0,-10z M310,30l10,0 0,10 -10,0 0,-10z M330,30l10,0 0,10 -10,0 0,-10z M340,30l10,0 0,10 -10,0 0,-10z M350,30l10,0 0,10 -10,0 0,-10z M370,30l10,0 0,10 -10,0 0,-10z M10,40l10,0 0,10 -10,0 0,-10z M30,40l10,0 0,10 -10,0 0,-10z M40,40l10,0 0,10 -10,0 0,-10z M50,40l10,0 0,10 -10,0 0,-10z M70,40l10,0 0,10 -10,0 0,-10z M100,40l10,0 0,10 -10,0 0,-10z M120,40l10,0 0,10 -10,0 0,-10z M130,40l10,0 0,10 -10,0 0,-10z M150,40l10,0 0,10 -10,0 0,-10z M160,40l10,0 0,10 -10,0 0,-10z M190,40l10,0 0,10 -10,0 0,-10z M230,40l10,0 0,10 -10,0 0,-10z M240,40l10,0 0,10 -10,0 0,-10z M250,40l10,0 0,10 -10,0 0,-10z M260,40l10,0 0,10 -10,0 0,-10z M270,40l10,0 0,10 -10,0 0,-10z M290,40l10,0 0,10 -10,0 0,-10z M310,40l10,0 0,10 -10,0 0,-10z M330,40l10,0 0,10 -10,0 0,-10z M340,40l10,0 0,10 -10,0 0,-10z M350,40l10,0 0,10 -10,0 0,-10z M370,40l10,0 0,10 -10,0 0,-10z M10,50l10,0 0,10 -10,0 0,-10z M30,50l10,0 0,10 -10,0 0,-10z M40,50l10,0 0,10 -10,0 0,-10z M50,50l10,0 0,10 -10,0 0,-10z M70,50l10,0 0,10 -10,0 0,-10z M90,50l10,0 0,10 -10,0 0,-10z M100,50l10,0 0,10 -10,0 0,-10z M120,50l10,0 0,10 -10,0 0,-10z M150,50l10,0 0,10 -10,0 0,-10z M170,50l10,0 0,10 -10,0 0,-10z M190,50l10,0 0,10 -10,0 0,-10z M220,50l10,0 0,10 -10,0 0,-10z M240,50l10,0 0,10 -10,0 0,-10z M260,50l10,0 0,10 -10,0 0,-10z M280,50l10,0 0,10 -10,0 0,-10z M310,50l10,0 0,10 -10,0 0,-10z M330,50l10,0 0,10 -10,0 0,-10z M340,50l10,0 0,10 -10,0 0,-10z M350,50l10,0 0,10 -10,0 0,-10z M370,50l10,0 0,10 -10,0 0,-10z M10,60l10,0 0,10 -10,0 0,-10z M70,60l10,0 0,10 -10,0 0,-10z M90,60l10,0 0,10 -10,0 0,-10z M100,60l10,0 0,10 -10,0 0,-10z M130,60l10,0 0,10 -10,0 0,-10z M140,60l10,0 0,10 -10,0 0,-10z M150,60l10,0 0,10 -10,0 0,-10z M180,60l10,0 0,10 -10,0 0,-10z M190,60l10,0 0,10 -10,0 0,-10z M200,60l10,0 0,10 -10,0 0,-10z M210,60l10,0 0,10 -10,0 0,-10z M220,60l10,0 0,10 -10,0 0,-10z M230,60l10,0 0,10 -10,0 0,-10z M250,60l10,0 0,10 -10,0 0,-10z M290,60l10,0 0,10 -10,0 0,-10z M310,60l10,0 0,10 -10,0 0,-10z M370,60l10,0 0,10 -10,0 0,-10z M10,70l10,0 0,10 -10,0 0,-10z M20,70l10,0 0,10 -10,0 0,-10z M30,70l10,0 0,10 -10,0 0,-10z M40,70l10,0 0,10 -10,0 0,-10z M50,70l10,0 0,10 -10,0 0,-10z M60,70l10,0 0,10 -10,0 0,-10z M70,70l10,0 0,10 -10,0 0,-10z M90,70l10,0 0,10 -10,0 0,-10z M110,70l10,0 0,10 -10,0 0,-10z M130,70l10,0 0,10 -10,0 0,-10z M150,70l10,0 0,10 -10,0 0,-10z M170,70l10,0 0,10 -10,0 0,-10z M190,70l10,0 0,10 -10,0 0,-10z M210,70l10,0 0,10 -10,0 0,-10z M230,70l10,0 0,10 -10,0 0,-10z M250,70l10,0 0,10 -10,0 0,-10z M270,70l10,0 0,10 -10,0 0,-10z M290,70l10,0 0,10 -10,0 0,-10z M310,70l10,0 0,10 -10,0 0,-10z M320,70l10,0 0,10 -10,0 0,-10z M330,70l10,0 0,10 -10,0 0,-10z M340,70l10,0 0,10 -10,0 0,-10z M350,70l10,0 0,10 -10,0 0,-10z M360,70l10,0 0,10 -10,0 0,-10z M370,70l10,0 0,10 -10,0 0,-10z M110,80l10,0 0,10 -10,0 0,-10z M140,80l10,0 0,10 -10,0 0,-10z M150,80l10,0 0,10 -10,0 0,-10z M180,80l10,0 0,10 -10,0 0,-10z M190,80l10,0 0,10 -10,0 0,-10z M200,80l10,0 0,10 -10,0 0,-10z M220,80l10,0 0,10 -10,0 0,-10z M240,80l10,0 0,10 -10,0 0,-10z M250,80l10,0 0,10 -10,0 0,-10z M270,80l10,0 0,10 -10,0 0,-10z M20,90l10,0 0,10 -10,0 0,-10z M50,90l10,0 0,10 -10,0 0,-10z M70,90l10,0 0,10 -10,0 0,-10z M90,90l10,0 0,10 -10,0 0,-10z M100,90l10,0 0,10 -10,0 0,-10z M110,90l10,0 0,10 -10,0 0,-10z M130,90l10,0 0,10 -10,0 0,-10z M140,90l10,0 0,10 -10,0 0,-10z M150,90l10,0 0,10 -10,0 0,-10z M170,90l10,0 0,10 -10,0 0,-10z M190,90l10,0 0,10 -10,0 0,-10z M200,90l10,0 0,10 -10,0 0,-10z M210,90l10,0 0,10 -10,0 0,-10z M220,90l10,0 0,10 -10,0 0,-10z M230,90l10,0 0,10 -10,0 0,-10z M240,90l10,0 0,10 -10,0 0,-10z M250,90l10,0 0,10 -10,0 0,-10z M260,90l10,0 0,10 -10,0 0,-10z M270,90l10,0 0,10 -10,0 0,-10z M280,90l10,0 0,10 -10,0 0,-10z M290,90l10,0 0,10 -10,0 0,-10z M300,90l10,0 0,10 -10,0 0,-10z M320,90l10,0 0,10 -10,0 0,-10z M330,90l10,0 0,10 -10,0 0,-10z M350,90l10,0 0,10 -10,0 0,-10z M10,100l10,0 0,10 -10,0 0,-10z M20,100l10,0 0,10 -10,0 0,-10z M30,100l10,0 0,10 -10,0 0,-10z M60,100l10,0 0,10 -10,0 0,-10z M90,100l10,0 0,10 -10,0 0,-10z M110,100l10,0 0,10 -10,0 0,-10z M140,100l10,0 0,10 -10,0 0,-10z M170,100l10,0 0,10 -10,0 0,-10z M180,100l10,0 0,10 -10,0 0,-10z M210,100l10,0 0,10 -10,0 0,-10z M230,100l10,0 0,10 -10,0 0,-10z M240,100l10,0 0,10 -10,0 0,-10z M270,100l10,0 0,10 -10,0 0,-10z M280,100l10,0 0,10 -10,0 0,-10z M290,100l10,0 0,10 -10,0 0,-10z M320,100l10,0 0,10 -10,0 0,-10z M330,100l10,0 0,10 -10,0 0,-10z M340,100l10,0 0,10 -10,0 0,-10z M350,100l10,0 0,10 -10,0 0,-10z M10,110l10,0 0,10 -10,0 0,-10z M30,110l10,0 0,10 -10,0 0,-10z M50,110l10,0 0,10 -10,0 0,-10z M70,110l10,0 0,10 -10,0 0,-10z M100,110l10,0 0,10 -10,0 0,-10z M110,110l10,0 0,10 -10,0 0,-10z M130,110l10,0 0,10 -10,0 0,-10z M170,110l10,0 0,10 -10,0 0,-10z M190,110l10,0 0,10 -10,0 0,-10z M200,110l10,0 0,10 -10,0 0,-10z M230,110l10,0 0,10 -10,0 0,-10z M240,110l10,0 0,10 -10,0 0,-10z M260,110l10,0 0,10 -10,0 0,-10z M270,110l10,0 0,10 -10,0 0,-10z M280,110l10,0 0,10 -10,0 0,-10z M290,110l10,0 0,10 -10,0 0,-10z M300,110l10,0 0,10 -10,0 0,-10z M320,110l10,0 0,10 -10,0 0,-10z M350,110l10,0 0,10 -10,0 0,-10z M30,120l10,0 0,10 -10,0 0,-10z M60,120l10,0 0,10 -10,0 0,-10z M90,120l10,0 0,10 -10,0 0,-10z M100,120l10,0 0,10 -10,0 0,-10z M140,120l10,0 0,10 -10,0 0,-10z M150,120l10,0 0,10 -10,0 0,-10z M210,120l10,0 0,10 -10,0 0,-10z M220,120l10,0 0,10 -10,0 0,-10z M240,120l10,0 0,10 -10,0 0,-10z M250,120l10,0 0,10 -10,0 0,-10z M270,120l10,0 0,10 -10,0 0,-10z M290,120l10,0 0,10 -10,0 0,-10z M300,120l10,0 0,10 -10,0 0,-10z M320,120l10,0 0,10 -10,0 0,-10z M330,120l10,0 0,10 -10,0 0,-10z M350,120l10,0 0,10 -10,0 0,-10z M370,120l10,0 0,10 -10,0 0,-10z M20,130l10,0 0,10 -10,0 0,-10z M30,130l10,0 0,10 -10,0 0,-10z M40,130l10,0 0,10 -10,0 0,-10z M70,130l10,0 0,10 -10,0 0,-10z M90,130l10,0 0,10 -10,0 0,-10z M110,130l10,0 0,10 -10,0 0,-10z M120,130l10,0 0,10 -10,0 0,-10z M130,130l10,0 0,10 -10,0 0,-10z M170,130l10,0 0,10 -10,0 0,-10z M180,130l10,0 0,10 -10,0 0,-10z M190,130l10,0 0,10 -10,0 0,-10z M210,130l10,0 0,10 -10,0 0,-10z M220,130l10,0 0,10 -10,0 0,-10z M300,130l10,0 0,10 -10,0 0,-10z M310,130l10,0 0,10 -10,0 0,-10z M350,130l10,0 0,10 -10,0 0,-10z M360,130l10,0 0,10 -10,0 0,-10z M10,140l10,0 0,10 -10,0 0,-10z M20,140l10,0 0,10 -10,0 0,-10z M30,140l10,0 0,10 -10,0 0,-10z M40,140l10,0 0,10 -10,0 0,-10z M80,140l10,0 0,10 -10,0 0,-10z M100,140l10,0 0,10 -10,0 0,-10z M120,140l10,0 0,10 -10,0 0,-10z M130,140l10,0 0,10 -10,0 0,-10z M150,140l10,0 0,10 -10,0 0,-10z M160,140l10,0 0,10 -10,0 0,-10z M170,140l10,0 0,10 -10,0 0,-10z M180,140l10,0 0,10 -10,0 0,-10z M220,140l10,0 0,10 -10,0 0,-10z M230,140l10,0 0,10 -10,0 0,-10z M240,140l10,0 0,10 -10,0 0,-10z M280,140l10,0 0,10 -10,0 0,-10z M290,140l10,0 0,10 -10,0 0,-10z M300,140l10,0 0,10 -10,0 0,-10z M330,140l10,0 0,10 -10,0 0,-10z M350,140l10,0 0,10 -10,0 0,-10z M20,150l10,0 0,10 -10,0 0,-10z M50,150l10,0 0,10 -10,0 0,-10z M60,150l10,0 0,10 -10,0 0,-10z M70,150l10,0 0,10 -10,0 0,-10z M110,150l10,0 0,10 -10,0 0,-10z M130,150l10,0 0,10 -10,0 0,-10z M150,150l10,0 0,10 -10,0 0,-10z M170,150l10,0 0,10 -10,0 0,-10z M210,150l10,0 0,10 -10,0 0,-10z M240,150l10,0 0,10 -10,0 0,-10z M250,150l10,0 0,10 -10,0 0,-10z M270,150l10,0 0,10 -10,0 0,-10z M280,150l10,0 0,10 -10,0 0,-10z M290,150l10,0 0,10 -10,0 0,-10z M340,150l10,0 0,10 -10,0 0,-10z M350,150l10,0 0,10 -10,0 0,-10z M20,160l10,0 0,10 -10,0 0,-10z M30,160l10,0 0,10 -10,0 0,-10z M50,160l10,0 0,10 -10,0 0,-10z M80,160l10,0 0,10 -10,0 0,-10z M110,160l10,0 0,10 -10,0 0,-10z M120,160l10,0 0,10 -10,0 0,-10z M140,160l10,0 0,10 -10,0 0,-10z M160,160l10,0 0,10 -10,0 0,-10z M170,160l10,0 0,10 -10,0 0,-10z M180,160l10,0 0,10 -10,0 0,-10z M190,160l10,0 0,10 -10,0 0,-10z M200,160l10,0 0,10 -10,0 0,-10z M230,160l10,0 0,10 -10,0 0,-10z M240,160l10,0 0,10 -10,0 0,-10z M270,160l10,0 0,10 -10,0 0,-10z M280,160l10,0 0,10 -10,0 0,-10z M350,160l10,0 0,10 -10,0 0,-10z M370,160l10,0 0,10 -10,0 0,-10z M20,170l10,0 0,10 -10,0 0,-10z M30,170l10,0 0,10 -10,0 0,-10z M60,170l10,0 0,10 -10,0 0,-10z M70,170l10,0 0,10 -10,0 0,-10z M80,170l10,0 0,10 -10,0 0,-10z M90,170l10,0 0,10 -10,0 0,-10z M100,170l10,0 0,10 -10,0 0,-10z M120,170l10,0 0,10 -10,0 0,-10z M180,170l10,0 0,10 -10,0 0,-10z M200,170l10,0 0,10 -10,0 0,-10z M210,170l10,0 0,10 -10,0 0,-10z M230,170l10,0 0,10 -10,0 0,-10z M250,170l10,0 0,10 -10,0 0,-10z M270,170l10,0 0,10 -10,0 0,-10z M310,170l10,0 0,10 -10,0 0,-10z M320,170l10,0 0,10 -10,0 0,-10z M340,170l10,0 0,10 -10,0 0,-10z M350,170l10,0 0,10 -10,0 0,-10z M360,170l10,0 0,10 -10,0 0,-10z M10,180l10,0 0,10 -10,0 0,-10z M20,180l10,0 0,10 -10,0 0,-10z M40,180l10,0 0,10 -10,0 0,-10z M50,180l10,0 0,10 -10,0 0,-10z M60,180l10,0 0,10 -10,0 0,-10z M80,180l10,0 0,10 -10,0 0,-10z M100,180l10,0 0,10 -10,0 0,-10z M150,180l10,0 0,10 -10,0 0,-10z M170,180l10,0 0,10 -10,0 0,-10z M210,180l10,0 0,10 -10,0 0,-10z M220,180l10,0 0,10 -10,0 0,-10z M260,180l10,0 0,10 -10,0 0,-10z M270,180l10,0 0,10 -10,0 0,-10z M280,180l10,0 0,10 -10,0 0,-10z M290,180l10,0 0,10 -10,0 0,-10z M330,180l10,0 0,10 -10,0 0,-10z M340,180l10,0 0,10 -10,0 0,-10z M350,180l10,0 0,10 -10,0 0,-10z M10,190l10,0 0,10 -10,0 0,-10z M20,190l10,0 0,10 -10,0 0,-10z M40,190l10,0 0,10 -10,0 0,-10z M70,190l10,0 0,10 -10,0 0,-10z M90,190l10,0 0,10 -10,0 0,-10z M100,190l10,0 0,10 -10,0 0,-10z M130,190l10,0 0,10 -10,0 0,-10z M140,190l10,0 0,10 -10,0 0,-10z M170,190l10,0 0,10 -10,0 0,-10z M190,190l10,0 0,10 -10,0 0,-10z M200,190l10,0 0,10 -10,0 0,-10z M210,190l10,0 0,10 -10,0 0,-10z M270,190l10,0 0,10 -10,0 0,-10z M280,190l10,0 0,10 -10,0 0,-10z M300,190l10,0 0,10 -10,0 0,-10z M10,200l10,0 0,10 -10,0 0,-10z M100,200l10,0 0,10 -10,0 0,-10z M140,200l10,0 0,10 -10,0 0,-10z M160,200l10,0 0,10 -10,0 0,-10z M180,200l10,0 0,10 -10,0 0,-10z M200,200l10,0 0,10 -10,0 0,-10z M220,200l10,0 0,10 -10,0 0,-10z M230,200l10,0 0,10 -10,0 0,-10z M250,200l10,0 0,10 -10,0 0,-10z M290,200l10,0 0,10 -10,0 0,-10z M310,200l10,0 0,10 -10,0 0,-10z M320,200l10,0 0,10 -10,0 0,-10z M330,200l10,0 0,10 -10,0 0,-10z M350,200l10,0 0,10 -10,0 0,-10z M10,210l10,0 0,10 -10,0 0,-10z M20,210l10,0 0,10 -10,0 0,-10z M30,210l10,0 0,10 -10,0 0,-10z M40,210l10,0 0,10 -10,0 0,-10z M60,210l10,0 0,10 -10,0 0,-10z M70,210l10,0 0,10 -10,0 0,-10z M80,210l10,0 0,10 -10,0 0,-10z M100,210l10,0 0,10 -10,0 0,-10z M120,210l10,0 0,10 -10,0 0,-10z M160,210l10,0 0,10 -10,0 0,-10z M170,210l10,0 0,10 -10,0 0,-10z M220,210l10,0 0,10 -10,0 0,-10z M230,210l10,0 0,10 -10,0 0,-10z M240,210l10,0 0,10 -10,0 0,-10z M250,210l10,0 0,10 -10,0 0,-10z M310,210l10,0 0,10 -10,0 0,-10z M350,210l10,0 0,10 -10,0 0,-10z M360,210l10,0 0,10 -10,0 0,-10z M370,210l10,0 0,10 -10,0 0,-10z M20,220l10,0 0,10 -10,0 0,-10z M80,220l10,0 0,10 -10,0 0,-10z M90,220l10,0 0,10 -10,0 0,-10z M110,220l10,0 0,10 -10,0 0,-10z M120,220l10,0 0,10 -10,0 0,-10z M130,220l10,0 0,10 -10,0 0,-10z M180,220l10,0 0,10 -10,0 0,-10z M190,220l10,0 0,10 -10,0 0,-10z M200,220l10,0 0,10 -10,0 0,-10z M240,220l10,0 0,10 -10,0 0,-10z M270,220l10,0 0,10 -10,0 0,-10z M280,220l10,0 0,10 -10,0 0,-10z M330,220l10,0 0,10 -10,0 0,-10z M360,220l10,0 0,10 -10,0 0,-10z M60,230l10,0 0,10 -10,0 0,-10z M70,230l10,0 0,10 -10,0 0,-10z M80,230l10,0 0,10 -10,0 0,-10z M90,230l10,0 0,10 -10,0 0,-10z M130,230l10,0 0,10 -10,0 0,-10z M140,230l10,0 0,10 -10,0 0,-10z M200,230l10,0 0,10 -10,0 0,-10z M210,230l10,0 0,10 -10,0 0,-10z M230,230l10,0 0,10 -10,0 0,-10z M240,230l10,0 0,10 -10,0 0,-10z M250,230l10,0 0,10 -10,0 0,-10z M260,230l10,0 0,10 -10,0 0,-10z M270,230l10,0 0,10 -10,0 0,-10z M280,230l10,0 0,10 -10,0 0,-10z M290,230l10,0 0,10 -10,0 0,-10z M310,230l10,0 0,10 -10,0 0,-10z M350,230l10,0 0,10 -10,0 0,-10z M360,230l10,0 0,10 -10,0 0,-10z M10,240l10,0 0,10 -10,0 0,-10z M30,240l10,0 0,10 -10,0 0,-10z M60,240l10,0 0,10 -10,0 0,-10z M80,240l10,0 0,10 -10,0 0,-10z M110,240l10,0 0,10 -10,0 0,-10z M130,240l10,0 0,10 -10,0 0,-10z M140,240l10,0 0,10 -10,0 0,-10z M150,240l10,0 0,10 -10,0 0,-10z M160,240l10,0 0,10 -10,0 0,-10z M170,240l10,0 0,10 -10,0 0,-10z M180,240l10,0 0,10 -10,0 0,-10z M190,240l10,0 0,10 -10,0 0,-10z M220,240l10,0 0,10 -10,0 0,-10z M230,240l10,0 0,10 -10,0 0,-10z M240,240l10,0 0,10 -10,0 0,-10z M260,240l10,0 0,10 -10,0 0,-10z M290,240l10,0 0,10 -10,0 0,-10z M300,240l10,0 0,10 -10,0 0,-10z M310,240l10,0 0,10 -10,0 0,-10z M320,240l10,0 0,10 -10,0 0,-10z M350,240l10,0 0,10 -10,0 0,-10z M360,240l10,0 0,10 -10,0 0,-10z M30,250l10,0 0,10 -10,0 0,-10z M40,250l10,0 0,10 -10,0 0,-10z M70,250l10,0 0,10 -10,0 0,-10z M100,250l10,0 0,10 -10,0 0,-10z M110,250l10,0 0,10 -10,0 0,-10z M120,250l10,0 0,10 -10,0 0,-10z M140,250l10,0 0,10 -10,0 0,-10z M150,250l10,0 0,10 -10,0 0,-10z M210,250l10,0 0,10 -10,0 0,-10z M220,250l10,0 0,10 -10,0 0,-10z M230,250l10,0 0,10 -10,0 0,-10z M240,250l10,0 0,10 -10,0 0,-10z M260,250l10,0 0,10 -10,0 0,-10z M280,250l10,0 0,10 -10,0 0,-10z M290,250l10,0 0,10 -10,0 0,-10z M300,250l10,0 0,10 -10,0 0,-10z M310,250l10,0 0,10 -10,0 0,-10z M320,250l10,0 0,10 -10,0 0,-10z M340,250l10,0 0,10 -10,0 0,-10z M350,250l10,0 0,10 -10,0 0,-10z M360,250l10,0 0,10 -10,0 0,-10z M370,250l10,0 0,10 -10,0 0,-10z M10,260l10,0 0,10 -10,0 0,-10z M20,260l10,0 0,10 -10,0 0,-10z M80,260l10,0 0,10 -10,0 0,-10z M90,260l10,0 0,10 -10,0 0,-10z M120,260l10,0 0,10 -10,0 0,-10z M130,260l10,0 0,10 -10,0 0,-10z M160,260l10,0 0,10 -10,0 0,-10z M190,260l10,0 0,10 -10,0 0,-10z M210,260l10,0 0,10 -10,0 0,-10z M220,260l10,0 0,10 -10,0 0,-10z M240,260l10,0 0,10 -10,0 0,-10z M260,260l10,0 0,10 -10,0 0,-10z M270,260l10,0 0,10 -10,0 0,-10z M280,260l10,0 0,10 -10,0 0,-10z M290,260l10,0 0,10 -10,0 0,-10z M300,260l10,0 0,10 -10,0 0,-10z M330,260l10,0 0,10 -10,0 0,-10z M30,270l10,0 0,10 -10,0 0,-10z M50,270l10,0 0,10 -10,0 0,-10z M70,270l10,0 0,10 -10,0 0,-10z M110,270l10,0 0,10 -10,0 0,-10z M120,270l10,0 0,10 -10,0 0,-10z M140,270l10,0 0,10 -10,0 0,-10z M150,270l10,0 0,10 -10,0 0,-10z M160,270l10,0 0,10 -10,0 0,-10z M190,270l10,0 0,10 -10,0 0,-10z M240,270l10,0 0,10 -10,0 0,-10z M250,270l10,0 0,10 -10,0 0,-10z M280,270l10,0 0,10 -10,0 0,-10z M300,270l10,0 0,10 -10,0 0,-10z M320,270l10,0 0,10 -10,0 0,-10z M330,270l10,0 0,10 -10,0 0,-10z M360,270l10,0 0,10 -10,0 0,-10z M40,280l10,0 0,10 -10,0 0,-10z M90,280l10,0 0,10 -10,0 0,-10z M100,280l10,0 0,10 -10,0 0,-10z M110,280l10,0 0,10 -10,0 0,-10z M120,280l10,0 0,10 -10,0 0,-10z M140,280l10,0 0,10 -10,0 0,-10z M150,280l10,0 0,10 -10,0 0,-10z M160,280l10,0 0,10 -10,0 0,-10z M170,280l10,0 0,10 -10,0 0,-10z M220,280l10,0 0,10 -10,0 0,-10z M280,280l10,0 0,10 -10,0 0,-10z M290,280l10,0 0,10 -10,0 0,-10z M310,280l10,0 0,10 -10,0 0,-10z M320,280l10,0 0,10 -10,0 0,-10z M330,280l10,0 0,10 -10,0 0,-10z M350,280l10,0 0,10 -10,0 0,-10z M10,290l10,0 0,10 -10,0 0,-10z M20,290l10,0 0,10 -10,0 0,-10z M40,290l10,0 0,10 -10,0 0,-10z M70,290l10,0 0,10 -10,0 0,-10z M90,290l10,0 0,10 -10,0 0,-10z M110,290l10,0 0,10 -10,0 0,-10z M120,290l10,0 0,10 -10,0 0,-10z M130,290l10,0 0,10 -10,0 0,-10z M140,290l10,0 0,10 -10,0 0,-10z M150,290l10,0 0,10 -10,0 0,-10z M160,290l10,0 0,10 -10,0 0,-10z M170,290l10,0 0,10 -10,0 0,-10z M210,290l10,0 0,10 -10,0 0,-10z M220,290l10,0 0,10 -10,0 0,-10z M230,290l10,0 0,10 -10,0 0,-10z M250,290l10,0 0,10 -10,0 0,-10z M290,290l10,0 0,10 -10,0 0,-10z M300,290l10,0 0,10 -10,0 0,-10z M310,290l10,0 0,10 -10,0 0,-10z M320,290l10,0 0,10 -10,0 0,-10z M330,290l10,0 0,10 -10,0 0,-10z M350,290l10,0 0,10 -10,0 0,-10z M360,290l10,0 0,10 -10,0 0,-10z M370,290l10,0 0,10 -10,0 0,-10z M90,300l10,0 0,10 -10,0 0,-10z M110,300l10,0 0,10 -10,0 0,-10z M130,300l10,0 0,10 -10,0 0,-10z M140,300l10,0 0,10 -10,0 0,-10z M170,300l10,0 0,10 -10,0 0,-10z M210,300l10,0 0,10 -10,0 0,-10z M240,300l10,0 0,10 -10,0 0,-10z M270,300l10,0 0,10 -10,0 0,-10z M290,300l10,0 0,10 -10,0 0,-10z M330,300l10,0 0,10 -10,0 0,-10z M340,300l10,0 0,10 -10,0 0,-10z M10,310l10,0 0,10 -10,0 0,-10z M20,310l10,0 0,10 -10,0 0,-10z M30,310l10,0 0,10 -10,0 0,-10z M40,310l10,0 0,10 -10,0 0,-10z M50,310l10,0 0,10 -10,0 0,-10z M60,310l10,0 0,10 -10,0 0,-10z M70,310l10,0 0,10 -10,0 0,-10z M110,310l10,0 0,10 -10,0 0,-10z M120,310l10,0 0,10 -10,0 0,-10z M130,310l10,0 0,10 -10,0 0,-10z M140,310l10,0 0,10 -10,0 0,-10z M150,310l10,0 0,10 -10,0 0,-10z M170,310l10,0 0,10 -10,0 0,-10z M190,310l10,0 0,10 -10,0 0,-10z M200,310l10,0 0,10 -10,0 0,-10z M210,310l10,0 0,10 -10,0 0,-10z M220,310l10,0 0,10 -10,0 0,-10z M230,310l10,0 0,10 -10,0 0,-10z M240,310l10,0 0,10 -10,0 0,-10z M260,310l10,0 0,10 -10,0 0,-10z M270,310l10,0 0,10 -10,0 0,-10z M290,310l10,0 0,10 -10,0 0,-10z M310,310l10,0 0,10 -10,0 0,-10z M330,310l10,0 0,10 -10,0 0,-10z M340,310l10,0 0,10 -10,0 0,-10z M350,310l10,0 0,10 -10,0 0,-10z M10,320l10,0 0,10 -10,0 0,-10z M70,320l10,0 0,10 -10,0 0,-10z M110,320l10,0 0,10 -10,0 0,-10z M120,320l10,0 0,10 -10,0 0,-10z M130,320l10,0 0,10 -10,0 0,-10z M160,320l10,0 0,10 -10,0 0,-10z M180,320l10,0 0,10 -10,0 0,-10z M210,320l10,0 0,10 -10,0 0,-10z M220,320l10,0 0,10 -10,0 0,-10z M240,320l10,0 0,10 -10,0 0,-10z M250,320l10,0 0,10 -10,0 0,-10z M270,320l10,0 0,10 -10,0 0,-10z M290,320l10,0 0,10 -10,0 0,-10z M330,320l10,0 0,10 -10,0 0,-10z M350,320l10,0 0,10 -10,0 0,-10z M370,320l10,0 0,10 -10,0 0,-10z M10,330l10,0 0,10 -10,0 0,-10z M30,330l10,0 0,10 -10,0 0,-10z M40,330l10,0 0,10 -10,0 0,-10z M50,330l10,0 0,10 -10,0 0,-10z M70,330l10,0 0,10 -10,0 0,-10z M90,330l10,0 0,10 -10,0 0,-10z M100,330l10,0 0,10 -10,0 0,-10z M110,330l10,0 0,10 -10,0 0,-10z M120,330l10,0 0,10 -10,0 0,-10z M160,330l10,0 0,10 -10,0 0,-10z M210,330l10,0 0,10 -10,0 0,-10z M240,330l10,0 0,10 -10,0 0,-10z M290,330l10,0 0,10 -10,0 0,-10z M300,330l10,0 0,10 -10,0 0,-10z M310,330l10,0 0,10 -10,0 0,-10z M320,330l10,0 0,10 -10,0 0,-10z M330,330l10,0 0,10 -10,0 0,-10z M340,330l10,0 0,10 -10,0 0,-10z M350,330l10,0 0,10 -10,0 0,-10z M360,330l10,0 0,10 -10,0 0,-10z M370,330l10,0 0,10 -10,0 0,-10z M10,340l10,0 0,10 -10,0 0,-10z M30,340l10,0 0,10 -10,0 0,-10z M40,340l10,0 0,10 -10,0 0,-10z M50,340l10,0 0,10 -10,0 0,-10z M70,340l10,0 0,10 -10,0 0,-10z M130,340l10,0 0,10 -10,0 0,-10z M150,340l10,0 0,10 -10,0 0,-10z M160,340l10,0 0,10 -10,0 0,-10z M180,340l10,0 0,10 -10,0 0,-10z M200,340l10,0 0,10 -10,0 0,-10z M220,340l10,0 0,10 -10,0 0,-10z M230,340l10,0 0,10 -10,0 0,-10z M250,340l10,0 0,10 -10,0 0,-10z M260,340l10,0 0,10 -10,0 0,-10z M280,340l10,0 0,10 -10,0 0,-10z M290,340l10,0 0,10 -10,0 0,-10z M310,340l10,0 0,10 -10,0 0,-10z M340,340l10,0 0,10 -10,0 0,-10z M360,340l10,0 0,10 -10,0 0,-10z M10,350l10,0 0,10 -10,0 0,-10z M30,350l10,0 0,10 -10,0 0,-10z M40,350l10,0 0,10 -10,0 0,-10z M50,350l10,0 0,10 -10,0 0,-10z M70,350l10,0 0,10 -10,0 0,-10z M100,350l10,0 0,10 -10,0 0,-10z M120,350l10,0 0,10 -10,0 0,-10z M150,350l10,0 0,10 -10,0 0,-10z M190,350l10,0 0,10 -10,0 0,-10z M200,350l10,0 0,10 -10,0 0,-10z M220,350l10,0 0,10 -10,0 0,-10z M230,350l10,0 0,10 -10,0 0,-10z M240,350l10,0 0,10 -10,0 0,-10z M250,350l10,0 0,10 -10,0 0,-10z M310,350l10,0 0,10 -10,0 0,-10z M320,350l10,0 0,10 -10,0 0,-10z M360,350l10,0 0,10 -10,0 0,-10z M10,360l10,0 0,10 -10,0 0,-10z M70,360l10,0 0,10 -10,0 0,-10z M90,360l10,0 0,10 -10,0 0,-10z M100,360l10,0 0,10 -10,0 0,-10z M150,360l10,0 0,10 -10,0 0,-10z M160,360l10,0 0,10 -10,0 0,-10z M180,360l10,0 0,10 -10,0 0,-10z M200,360l10,0 0,10 -10,0 0,-10z M210,360l10,0 0,10 -10,0 0,-10z M220,360l10,0 0,10 -10,0 0,-10z M240,360l10,0 0,10 -10,0 0,-10z M270,360l10,0 0,10 -10,0 0,-10z M280,360l10,0 0,10 -10,0 0,-10z M310,360l10,0 0,10 -10,0 0,-10z M350,360l10,0 0,10 -10,0 0,-10z M360,360l10,0 0,10 -10,0 0,-10z M10,370l10,0 0,10 -10,0 0,-10z M20,370l10,0 0,10 -10,0 0,-10z M30,370l10,0 0,10 -10,0 0,-10z M40,370l10,0 0,10 -10,0 0,-10z M50,370l10,0 0,10 -10,0 0,-10z M60,370l10,0 0,10 -10,0 0,-10z M70,370l10,0 0,10 -10,0 0,-10z M100,370l10,0 0,10 -10,0 0,-10z M120,370l10,0 0,10 -10,0 0,-10z M130,370l10,0 0,10 -10,0 0,-10z M140,370l10,0 0,10 -10,0 0,-10z M150,370l10,0 0,10 -10,0 0,-10z M170,370l10,0 0,10 -10,0 0,-10z M190,370l10,0 0,10 -10,0 0,-10z M210,370l10,0 0,10 -10,0 0,-10z M220,370l10,0 0,10 -10,0 0,-10z M230,370l10,0 0,10 -10,0 0,-10z M250,370l10,0 0,10 -10,0 0,-10z M280,370l10,0 0,10 -10,0 0,-10z M320,370l10,0 0,10 -10,0 0,-10z M330,370l10,0 0,10 -10,0 0,-10z M350,370l10,0 0,10 -10,0 0,-10z M360,370l10,0 0,10 -10,0 0,-10z M370,370l10,0 0,10 -10,0 0,-10z " stroke="transparent" fill="rgb(0, 0, 0)"/></svg>